# xmcd
#
# Track frame offsets:
#	150
#	17461
#	26942
#	49237
#	65764
#	80721
#	94457
#	106384
#	121249
#	136748
#	155805
#	174952
#
# Disc length: 2597 seconds
#
# Revision: 1
# Processed by: cddbd v1.5.2PL0 Copyright (c) Steve Scherf et al.
# Submitted via: audiograbber 1.82.02
#
DISCID=a30a230c
DTITLE=Professor Longhair - Crawfish Fiesta
DYEAR=1980
DGENRE=New Orleans R&B
TTITLE0=Big Chief
TTITLE1=Her Mind Is Gone
TTITLE2=Something On Your Mind
TTITLE3=You're Driving Me Crazy
TTITLE4=Red Beans
TTITLE5=Willie Fugal's Blues
TTITLE6=It's My Fault, Darling
TTITLE7=In The Wee Wee Hours
TTITLE8=Cry To Me
TTITLE9=Bald Head
TTITLE10=Whole Lotta Loving
TTITLE11=Crawfish Fiesta
EXTD=
EXTT0=
EXTT1=
EXTT2=
EXTT3=
EXTT4=
EXTT5=
EXTT6=
EXTT7=
EXTT8=
EXTT9=
EXTT10=
EXTT11=
PLAYORDER=
